<svg t="1702390879581" class="icon" viewBox="0 0 1024 1024" version="1.1" xmlns="http://www.w3.org/2000/svg" p-id="3996" width="32" height="32"><path d="M512 0C229.232 0 0 229.23 0 512s229.23 512 512 512 512-229.23 512-512S794.77 0 512 0z m0 993.808C245.906 993.808 30.192 778.094 30.192 512S245.906 30.192 512 30.192c266.098 0 481.808 215.712 481.808 481.806 0 266.096-215.71 481.81-481.808 481.81z" fill="#e0620d" p-id="3997"></path><path d="M234 380h94c13.254 0 24-10.746 24-24v-56c0-13.254-10.746-24-24-24h-94c-13.254 0-24 10.746-24 24v56c0 13.254 10.746 24 24 24zM396.222 380h94c13.254 0 24-10.746 24-24v-56c0-13.254-10.748-24-24-24h-94c-13.254 0-24 10.746-24 24v56c0 13.254 10.744 24 24 24zM558.444 380h94c13.254 0 24-10.746 24-24v-56c0-13.254-10.746-24-24-24h-94c-13.254 0-24 10.746-24 24v56c0 13.254 10.746 24 24 24z" fill="#e0620d" p-id="3998"></path><path d="M813.666 298c0-13.254-10.744-24-24-24h-56c-13.254 0-24 10.746-24 24v160.126h-149c-13.254 0-24 10.744-24 24v56c0 13.254 10.746 24 24 24h230c13.254 0 24-10.746 24-24v-56c0-2.376-0.358-4.664-1-6.83V298zM491 458.126h-94c-13.254 0-24 10.746-24 24v56c0 13.254 10.746 24 24 24h94c13.254 0 24-10.746 24-24v-56c0-13.254-10.746-24-24-24zM234 563.126h94c13.254 0 24-10.746 24-24v-56c0-13.254-10.746-24-24-24h-94c-13.254 0-24 10.746-24 24v56c0 13.252 10.746 24 24 24zM789.5 642.5H234c-13.254 0-24 10.746-24 24V722c0 13.254 10.746 24 24 24h555.5c13.254 0 24-10.746 24-24v-55.5c0-13.254-10.746-24-24-24z" fill="#e0620d" p-id="3999"></path></svg>